<?xml version="1.0" encoding="iso-8859-1"?>
<!-- Generator: Adobe Illustrator 16.0.0, SVG Export Plug-In . SVG Version: 6.00 Build 0)  -->
<!DOCTYPE svg PUBLIC "-//W3C//DTD SVG 1.1//EN" "http://www.w3.org/Graphics/SVG/1.1/DTD/svg11.dtd">
<svg version="1.1" id="Capa_1" xmlns="http://www.w3.org/2000/svg" xmlns:xlink="http://www.w3.org/1999/xlink" x="0px" y="0px"
	 width="108.336px" height="108.336px" viewBox="0 0 108.336 108.336" fill="#fff" style="enable-background:new 0 0 108.336 108.336;"
	 xml:space="preserve">
<g>
	<path d="M54.168,0C24.3,0,0,24.3,0,54.168c0,29.869,24.3,54.168,54.168,54.168s54.168-24.299,54.168-54.168
		C108.336,24.3,84.036,0,54.168,0z M91.699,91.611c-10.412,10.371-22.924,15.559-37.531,15.559c5.77,0,10.75-5.188,14.945-15.559
		c4.191-10.373,6.291-22.885,6.291-37.532c0-14.608-2.1-27.107-6.291-37.503C64.918,6.184,59.938,0.987,54.168,0.987
		c14.607,0,27.119,5.197,37.531,15.588c10.414,10.396,15.621,22.895,15.621,37.503C107.32,68.727,102.113,81.238,91.699,91.611z"/>
</g>
<g>
</g>
<g>
</g>
<g>
</g>
<g>
</g>
<g>
</g>
<g>
</g>
<g>
</g>
<g>
</g>
<g>
</g>
<g>
</g>
<g>
</g>
<g>
</g>
<g>
</g>
<g>
</g>
<g>
</g>
</svg>
